<svg width="75" height="75" viewBox="0 0 75 75" fill="none" xmlns="http://www.w3.org/2000/svg">
<path d="M65.8945 25.7928H64.8696H64.4407L64.3576 25.3647H64.0136C64.0136 25.3647 64.0136 25.1092 63.7581 25.0234C63.5025 24.9376 62.9887 25.0234 62.9887 25.0234L61.878 26.1341L61.7074 26.4754V27.0741C61.7074 27.0741 61.878 27.2439 61.7074 27.6719C61.5367 28.0999 61.5367 28.0999 61.5367 28.0999L61.2812 28.5505L61.366 29.0399L60.6834 28.5505H60.3411C60.3411 28.5505 60.426 28.0141 60.1705 27.8435C59.9149 27.6728 59.458 26.9034 59.458 26.9034L58.7618 26.3057V25.8786H58.2047L57.8642 25.7079L57.1148 25.6465L56.8375 25.623C56.8375 25.623 57.2647 26.2217 57.4371 26.4772C57.6069 26.7337 57.6069 26.7337 57.6069 26.7337L57.8642 27.2457C58.1198 27.6737 58.1198 27.6737 58.1198 27.6737L58.3753 28.0159L58.2886 28.5523H58.0331L57.606 29.2973L57.1807 29.4679L56.666 29.5537L56.4104 29.1257L56.5811 28.5514L56.7518 28.015L56.6651 27.5021L56.1522 27.075L55.8099 26.7328L55.3828 26.3914L54.785 25.8786L54.274 25.4505L53.6744 25.6212L53.2473 25.9634L52.8201 26.2199L52.2206 26.9892L51.7077 27.587L51.1099 28.015L50.6846 29.2115H51.1099H51.881L53.0766 29.6386L53.4188 30.0666H53.8459L54.5304 30.7502H55.0433V31.0924L55.8966 31.776L56.4962 32.1182H57.1807H57.5193V31.7751L58.2038 31.5186L58.7167 31.2622L59.0589 31.1773C59.0589 31.1773 59.7416 31.1773 60.1696 31.2622C60.5967 31.348 60.5967 31.348 60.5967 31.348L61.0256 31.4337L61.6216 31.6902L62.0505 32.1182H62.5616H62.9056L63.759 31.6902V31.2622V30.6644C63.5883 30.1515 63.5883 30.1515 63.5883 30.1515L62.8189 29.2124V28.6137C62.8189 28.6137 62.6483 28.1017 63.1612 27.8444C63.6741 27.587 63.6741 27.5879 63.6741 27.5879H64.8696H65.4674H65.8096V27.1599H66.8345V26.8186V26.3066H66.4074L65.8945 25.7928Z" fill="white"/>
<path d="M37.6961 0.5C17.2922 0.5 0.694336 17.0979 0.694336 37.5C0.694336 57.9012 17.2922 74.5 37.6961 74.5C58.0965 74.5 74.6943 57.9012 74.6943 37.5C74.6943 17.0979 58.0965 0.5 37.6961 0.5ZM47.5216 19.6407L47.5107 19.6569C47.7735 19.6876 48.1194 19.7265 48.1194 19.7265H48.4634H48.8589L49.2327 19.2145L49.6599 18.6167L49.8305 17.8464H50.1728H50.6856H51.111V18.5309V20.0687V20.7523C51.111 20.7523 51.111 20.7523 50.7705 21.0087C50.4283 21.2652 50.7705 21.6074 50.7705 21.6074H50.0861H49.5732H48.8056H48.206H47.5216H47.0629H46.6041V21.0087V20.5807V20.2385H47.052L47.5107 19.6569C47.2182 19.6226 47.0294 19.5955 47.5216 19.6407ZM35.8992 50.0606V50.5735V51.4277C35.8992 51.4277 35.8992 51.4277 35.7294 51.6842C35.5588 51.9406 35.2147 52.4535 34.9971 52.71C34.7795 52.9664 35.045 53.7358 34.9971 54.2477C34.9492 54.7606 34.9583 54.6758 34.9583 54.6758C34.9583 54.6758 35.045 55.1887 34.9583 55.6149C34.8752 56.0429 34.4472 57.1536 34.1907 57.6665C33.9334 58.1785 33.2507 58.6056 33.2507 58.6056C33.2507 58.6056 32.5663 59.29 32.3089 59.4607C32.0534 59.6314 31.7111 59.9727 31.7111 59.9727L30.1733 60.2292L29.1466 61.6812C29.1466 61.6812 29.2333 62.5363 29.1466 62.8776C29.0636 63.2199 28.3791 64.3305 28.3791 64.3305C28.3791 64.3305 26.9262 65.2696 26.3266 65.527C25.7306 65.7825 26.3266 65.7825 26.3266 65.7825C26.3266 65.7825 26.1568 66.2106 25.8155 66.8083C25.4751 67.407 25.9004 67.407 25.8155 68.0906C25.7306 68.7741 25.3884 69.1164 25.3884 69.1164C25.3884 69.1164 25.3884 69.1164 25.0462 69.7999C24.9983 69.8948 24.9667 69.9697 24.9423 70.0356C24.3816 69.8153 23.8316 69.5814 23.2844 69.3331L22.9106 68.4337V67.4928C22.9106 67.4928 22.9106 67.4928 22.9106 66.9808C22.9106 66.4679 22.4817 66.2972 22.4817 66.2972V64.8452H22.1783C22.1783 64.8452 22.2261 63.7346 22.1783 63.3065C22.1304 62.8785 22.1412 61.6821 22.1412 61.4265C22.1412 61.1701 22.2261 60.0585 22.1412 59.5465V58.35L21.7123 56.9829C21.7123 56.9829 21.6256 56.6407 21.2852 56.2984C20.943 55.9562 21.2852 55.614 21.2852 55.614C21.2852 55.614 20.3452 54.162 20.2585 53.8197C20.1736 53.4784 19.3203 51.6842 19.3203 51.6842L18.6358 51.0006V50.5726H18.1229L17.1829 49.8032L17.6958 48.3512L18.0363 47.2406L18.1229 46.7286L18.6358 43.5672V43.225L18.1229 42.7969L17.3536 42.1992L17.0114 41.772H16.6691L15.3869 41.2591L14.5336 40.4898L13.4229 39.1218H12.91V38.8662H12.2255L10.2588 38.524L9.57614 37.8404L8.89168 35.8746H8.2939L7.01346 35.1053V33.4808V33.0528V32.1995L6.24411 34.2501L5.81519 33.7381V33.311H5.47476V31.6035L5.09009 30.8341V29.7235V28.7834L4.70361 27.4163V26.1341V25.9508C6.79042 20.0118 10.434 14.8025 15.1476 10.8139L15.1295 10.9006L14.809 11.5418L15.1295 11.6059L16.2826 11.4776L16.6673 10.7074L16.9229 9.87484L17.0339 9.32131C17.1947 9.20392 17.3563 9.09195 17.517 8.97727L19.1659 9.36194L19.2309 9.81073L19.5515 10.2595L19.6147 10.6442L20.0626 10.5151L20.431 10.3868V9.6825L20.7696 9.1696L21.0893 8.20882V7.88916L21.6663 7.24804L21.7954 6.92748H22.0509C22.0509 6.92748 22.5638 7.11982 22.8203 7.50449C23.0758 7.89007 23.27 7.50449 23.27 7.50449C23.27 7.50449 23.27 7.50449 23.9102 8.01739C24.5504 8.52938 24.871 8.01739 24.871 8.01739L25.5112 8.5944H25.7667C25.7667 8.5944 26.6643 9.6202 26.9217 10.0681C27.1772 10.5169 27.049 10.7733 27.049 10.7733L27.691 11.158V11.6709L28.2039 12.4402L28.2689 13.0172L27.6901 13.9148H27.3054C27.3054 13.9148 26.9849 13.9148 26.6634 13.9148C26.342 13.9148 25.7658 13.978 25.7658 13.978H25.318L24.3581 13.7225L24.4195 13.4028V12.7617L23.9716 11.4153V11.0957L23.9084 10.7751H23.651H23.2682L23.0108 11.0957C23.0108 11.0957 23.0108 11.0957 22.4979 11.4804C21.985 11.865 21.9209 11.865 21.9209 11.865L21.7286 12.442L21.408 13.0832V13.4037L21.1525 13.7234H20.431H19.6147H19.4223H19.165L19.1036 14.1713L18.7171 14.4918L18.3965 15.2612L18.0769 14.8124L17.6272 15.5176V16.0946L17.8846 16.5425L18.1401 16.8631L18.2728 17.1827L18.6593 17.6947L19.3646 18.7205L20.4373 19.2334L20.7109 19.3616L21.0315 19.4899L21.7349 19.2975L22.2478 18.3359C22.2478 18.3359 22.311 18.0162 22.5033 17.7597C22.6975 17.5033 22.6975 16.2211 22.6975 16.2211C22.6975 16.2211 22.7589 15.9014 22.7589 15.7091C22.7589 15.5167 22.888 14.8756 22.888 14.8756V14.4909H23.53L23.7874 14.8106H23.9779C23.9779 14.8106 24.3644 15.2594 24.8755 15.9646C25.3884 16.6689 25.131 15.9646 25.131 15.9646L25.9004 16.2843H26.2869H27.0544L27.8888 16.8613L28.0811 17.3733L28.2753 17.7588L28.7213 18.5282L29.2342 19.3616L30.7088 20.9636L30.7738 21.5406L31.0294 22.7587V23.0784L30.1318 23.5271H29.8112C29.8112 23.5271 29.1078 23.3348 28.7213 23.3348L28.0161 23.0784L27.6964 21.9893L27.2594 22.3397L26.7357 22.7587H26.3492L25.7108 23.9768L26.1586 24.4888H26.928L27.505 24.5529L28.0161 24.6812L27.8084 24.8437L27.3551 25.195L27.0129 25.4514L25.9022 25.6221L25.4769 25.707L25.1329 25.7927L24.7057 25.8785H24.2786L23.1679 26.0492L22.655 26.3056L22.5702 28.015V28.6986L22.4835 29.2115L21.6283 29.8092L21.0324 30.4079L20.4382 30.7492V31.1773L19.2372 31.5195L19.3239 32.8866L18.9799 34.0831L19.1505 34.9373C19.1505 34.9373 18.7234 34.7667 18.3812 34.5951C18.039 34.4235 18.039 34.4244 17.6985 34.1671C17.3563 33.9115 16.9274 33.74 16.9274 33.74L16.4163 33.1422C16.4163 33.1422 15.8167 33.1422 15.2189 33.1422C14.6211 33.1422 14.4496 33.228 14.4496 33.228L12.9967 33.6551L12.5696 33.9115L12.314 34.5951L12.1442 35.108L12.314 36.2178H13.3389L13.6811 36.3035H14.4505C14.4505 36.3035 14.4505 36.3035 14.706 36.3902C14.9634 36.4751 15.4772 36.56 15.4772 36.56L15.7336 37.5L15.2189 38.44L16.6718 39.2094L16.9274 39.5516L17.2696 39.7214L17.6985 40.32L18.4679 41.0036L19.0657 41.6881L20.0057 42.0294H20.4382V41.7739L21.1173 41.4316L21.6283 41.261L22.0573 41.5174H22.9124L23.5102 41.6032C23.5102 41.6032 26.1595 42.5432 26.4151 42.713C26.6706 42.8845 27.1844 42.7987 27.1844 42.7987L30.26 45.021L30.5174 45.5339L30.688 46.1317V47.0283H31.7987L33.2516 47.9259C33.2516 47.9259 33.6787 48.0966 34.1916 48.3539C34.7027 48.6104 34.1916 48.3539 34.4472 48.5246C34.7027 48.6944 34.9583 48.7801 34.9583 48.7801L35.3005 48.9508C35.3005 48.9508 35.3005 48.9508 35.8983 49.2073C36.4988 49.4637 35.8992 50.0606 35.8992 50.0606ZM21.0947 38.589H20.775H20.5159H20.1863L19.109 37.8197V37.5V37.2119L18.9149 36.8589L18.2114 36.2178V35.9622V35.7058H18.467H18.7875H19.1081L19.6833 36.0254L19.9389 36.5383H20.1854V36.923L20.5809 37.5H21.0938H21.9263L23.0795 38.1095L22.8239 38.7181H22.376H21.8649C21.8649 38.7181 21.8649 38.7181 21.4134 38.589C20.9665 38.4608 21.0947 38.589 21.0947 38.589ZM42.054 10.7724L41.6025 11.2212C41.6025 11.2212 41.2196 11.3494 41.0273 11.4135C40.8331 11.4776 40.3871 11.5418 40.3871 11.5418L40.0006 11.6709L39.5527 11.9273L39.233 12.4393C39.233 12.4393 38.5892 12.8881 38.3987 13.0163C38.2063 13.1446 37.1796 13.6575 37.1796 13.6575C37.1796 13.6575 37.1796 13.6575 36.9241 13.7216C36.6667 13.7848 36.1656 14.1062 36.1656 14.1062L35.7069 14.2986C35.7069 14.2986 34.8743 15.3244 34.7443 15.5167C34.617 15.7091 34.2314 16.2861 34.2314 16.2861H33.9117H33.527V15.8373H33.1424V15.1962L32.5003 14.8106C32.5003 14.8106 32.6313 14.4259 32.5003 14.1062C32.373 13.7857 32.0525 13.4019 32.0525 13.4019V12.6317V11.8623L31.7319 11.5418V10.2604L31.6028 9.74752L31.7319 9.23462L32.0525 8.72262V8.21063V7.95418L31.6678 6.92838L31.5405 6.54371C31.5405 6.54371 31.2199 6.28816 31.0276 6.15904C30.8334 6.03081 30.6411 6.15904 30.6411 6.15904H30.195H28.8477L28.3348 5.77436V5.19735L28.6554 4.62034L29.1051 3.97922L29.9359 3.59455L30.3575 3.32455C32.7243 2.81617 35.1777 2.54347 37.6943 2.54347C40.5975 2.54347 43.4193 2.90556 46.121 3.57739L46.0262 3.65956L45.6415 3.85099L45.2551 4.23567L44.744 5.06913V5.32558V5.58203V5.90168L44.4216 6.35047L43.7832 6.73514V6.92748L43.3985 7.31215V7.63181V7.95237V8.46437V9.20211L43.012 9.55428V9.93895L42.0522 10.0672V10.7724H42.054ZM42.9497 13.8498H42.6942V13.2728C42.4386 12.6958 43.0789 12.9522 43.4635 12.6958H43.7191H44.0396H44.6483C44.6483 12.6958 44.809 12.6958 45.0013 12.9513C45.1937 13.2078 45.2569 12.9513 45.2569 12.9513L46.028 13.2719H46.2836L46.6041 13.5915V13.9446H46.3468V14.6173H46.0271H45.5124H44.7449C44.7449 14.6173 44.7449 14.6173 44.5525 14.5541C44.3602 14.49 43.5276 14.2336 43.5276 14.2336L42.9497 13.8498ZM66.9042 56.6705C66.8934 56.554 66.8745 56.4095 66.8356 56.2145C66.665 55.3602 66.4762 55.8731 66.9115 55.1038C67.3485 54.3344 67.3485 54.3344 67.3485 54.3344L67.9463 53.8215C67.9463 53.8215 68.2867 53.2247 68.4592 52.8824C68.6299 52.5402 68.6299 52.5402 68.6299 52.5402L69.1003 52.1131H69.4371C68.703 53.6996 67.8578 55.223 66.9042 56.6705ZM72.6464 37.6481C72.6464 37.7709 72.6391 37.8919 72.6373 38.0138L72.5615 38.7172L71.7063 39.5516L71.2792 39.9796H70.6814H70.3392H69.8263H69.4841L68.3734 40.4916L67.2636 38.9628L67.1769 37.2119H66.9196C66.9196 37.2119 66.581 36.6458 66.4943 36.3902C66.4076 36.1329 66.1503 35.1938 66.1503 35.1938L65.6392 34.4235L65.1281 34.7657V35.7058C65.1281 35.7058 65.2129 35.8764 65.2129 36.2178C65.2129 36.56 65.2129 37.2119 65.2129 37.2119L64.9556 38.3551L65.0423 38.7181L65.2129 38.9628L65.8107 39.8929L67.0063 41.2601L68.2037 42.1143H68.5459H68.8863H69.5708H69.8263L70.0837 42.7121L70.4259 43.1401V43.5681C70.4259 43.5681 70.2534 43.0561 69.997 43.5681C69.7396 44.0801 69.057 44.9361 69.057 44.9361L68.7166 45.2775L68.117 45.961L67.5192 47.0717L67.1769 47.5837L66.6641 48.0117L66.4943 48.9517L66.0654 49.8917L65.8947 50.746L65.5525 51.6011V52.0282C65.5525 52.0282 65.6392 52.7976 65.4676 53.2247C65.2969 53.6518 65.2969 54.2496 65.2969 54.2496L64.9547 54.8482L64.6143 55.3602L64.2278 56.2145L63.6743 56.7274L63.4169 57.4109L63.3302 57.9229L62.8191 59.291L62.7324 59.719C62.7324 59.719 62.3053 59.8887 61.9631 60.3167C61.6209 60.7448 60.8524 61.2577 60.8524 61.2577L60.3413 61.6848L59.144 62.2826L58.2039 62.7945L56.7528 62.3674L56.2399 60.9994V59.8038L56.1533 59.291L55.811 58.1803L55.5555 57.1554L55.4706 56.1287L55.2981 54.6767L54.9577 53.4802L54.787 51.6011V51.0024C54.787 51.0024 54.9577 50.9166 54.9577 50.2331C54.9577 49.5486 54.9577 48.865 54.9577 48.865L54.275 47.3272L53.8461 46.3014L53.7612 45.9592L53.0768 44.9343L52.4772 44.677H51.6239H51.111C51.111 44.677 50.0012 44.6779 49.7438 44.5921C49.4883 44.5063 49.3402 44.5063 48.8589 44.4214C48.3776 44.3365 48.3776 44.3356 48.3776 44.3356L47.8665 44.2498H47.0114L46.6059 43.9934L45.7309 43.3956V42.9685L44.8758 41.4298V41.0036L44.4469 40.5765V40.1485L43.7642 38.9628C43.7642 38.9628 43.7642 37.5849 43.7642 37.5C43.7642 37.4142 43.7642 36.3902 43.7642 36.3902C43.7642 36.3902 43.2513 35.9622 43.7642 35.7058C44.2753 35.4493 44.7024 34.68 44.7024 34.68L45.7309 34.0822L46.6059 33.3128L47.266 32.7142L48.2909 31.2621L48.3776 30.8341L48.8589 30.2364V29.8941L47.695 29.0408C47.695 29.0408 46.9238 28.7852 47.0529 28.443C47.1802 28.1008 47.1802 28.1008 47.1802 28.1008L47.0529 26.9901V26.6488L47.4358 26.4781L47.8665 25.6239L48.2069 25.5381C48.2069 25.5381 48.3993 25.7079 48.8598 25.7936C49.3203 25.8803 49.3203 25.8803 49.3203 25.8803C49.3203 25.8803 49.5741 25.9652 50.2585 25.7936C50.943 25.6239 50.943 25.6239 50.943 25.6239L51.1128 24.9403L50.515 24.5123L50.1746 23.8287L49.3212 23.5723L48.8607 23.1443L49.4043 22.9745L50.1755 22.6323L51.1137 22.3758L51.7114 21.6074H52.0519L52.3941 21.0945L52.7345 20.6665C52.7345 20.6665 52.9919 20.4967 53.3323 20.2385C53.6745 19.9829 53.9301 19.7265 53.9301 19.7265L54.443 19.2145H54.9559L56.1514 19.3002H56.5804H57.18L58.3737 19.0438L59.0582 18.4451L59.4564 17.8473H60.1688V17.506L60.3395 16.9931L60.1688 16.287L59.9982 15.6269V15.1989V14.6182L59.4564 13.6575L58.9715 14.6182H58.5462L58.287 15.1971V15.8806L57.7759 16.9064L57.6053 17.5051L57.18 17.8464H56.1514H55.8092L55.2963 18.2744H54.871L54.1865 17.8464L53.6736 17.3344H53.0759V16.7358L53.3757 16.2861V15.8815L53.6736 15.3695H54.1026C54.1026 15.3695 54.3581 14.2589 54.6137 14.0015C54.871 13.746 55.1266 13.6584 55.1266 13.6584L55.6395 12.6976H56.2372L56.6643 11.7792L57.3488 10.8401L57.9466 10.3272H58.287C58.287 10.3272 58.4595 10.5837 58.8017 10.3272C59.1421 10.0708 59.1421 10.0708 59.1421 10.0708H59.3218C66.7878 15.9691 71.793 24.8383 72.5407 34.8804L71.6188 34.6827L71.0228 34.8533L70.6805 35.7067H71.1077H71.5366L72.0477 36.2205L72.4748 36.7325L72.6355 36.9591C72.6391 37.1379 72.6518 37.3149 72.6518 37.4955L72.6464 37.5V37.6481Z" fill="white"/>
</svg>
