<svg width="67" height="75" viewBox="0 0 67 75" fill="none" xmlns="http://www.w3.org/2000/svg">
<path d="M53.6751 33.7691C53.6751 21.8258 43.3344 12.2984 31.118 13.6499C22.1297 14.6454 14.6877 21.8118 13.3978 30.763C12.0948 39.8068 16.7819 47.9044 24.0662 51.7122V56.6618C24.0662 57.7552 24.9526 58.6415 26.0459 58.6415H40.8102C41.9036 58.6415 42.7899 57.7552 42.7899 56.6618V51.7122C49.2558 48.3317 53.6751 41.5715 53.6751 33.7691Z" fill="white"/>
<path d="M40.8206 66.5707H26.0352C23.4115 66.5707 23.4115 62.6061 26.0352 62.6061H40.8197C43.4443 62.6061 43.4443 66.5707 40.8206 66.5707Z" fill="white"/>
<path d="M37.5913 74.5H29.2647C26.6409 74.5 26.6409 70.5353 29.2647 70.5353H37.5913C40.2141 70.5353 40.2141 74.5 37.5913 74.5Z" fill="white"/>
<path d="M31.4453 7.58833V2.46778C31.4453 -0.155928 35.41 -0.155928 35.41 2.46778V7.58833C35.41 10.212 31.4453 10.212 31.4453 7.58833Z" fill="white"/>
<path d="M13.5906 16.5934L9.97046 12.9723C8.11501 11.1169 10.9184 8.31432 12.7739 10.1689L16.3941 13.7899C18.2486 15.6454 15.4302 18.4338 13.5906 16.5934Z" fill="white"/>
<path d="M7.25542 35.7522H2.13575C-0.487959 35.7522 -0.487959 31.7876 2.13575 31.7876H7.25542C9.87914 31.7876 9.87914 35.7522 7.25542 35.7522Z" fill="white"/>
<path d="M9.91005 54.4856L13.5302 50.8646C15.3857 49.0091 18.1882 51.8126 16.3336 53.668L12.7135 57.289C10.873 59.1295 8.03786 56.3587 9.91005 54.4856Z" fill="white"/>
<path d="M50.5375 13.8577L54.1576 10.2367C56.0131 8.38124 58.8156 11.1847 56.9611 13.0401L53.3409 16.6612C51.4996 18.5008 48.6644 15.7299 50.5375 13.8577Z" fill="white"/>
<path d="M64.7261 35.7522H59.6065C56.9827 35.7522 56.9827 31.7876 59.6065 31.7876H64.7261C67.3498 31.7876 67.3498 35.7522 64.7261 35.7522Z" fill="white"/>
<path d="M54.1863 57.3323L50.5662 53.7112C48.7107 51.8558 51.5142 49.0532 53.3696 50.9078L56.9898 54.5288C58.8443 56.3843 56.0259 59.1727 54.1863 57.3323Z" fill="white"/>
</svg>
