<svg width="57" height="75" viewBox="0 0 57 75" fill="none" xmlns="http://www.w3.org/2000/svg">
<path d="M0.694336 71.3104C0.694336 72.1557 1.02925 72.969 1.62888 73.5655C2.22535 74.1651 3.03874 74.5 3.88396 74.5H53.6431C55.4037 74.5 56.8327 73.071 56.8327 71.3104C56.8327 69.5497 55.4037 68.1208 53.6431 68.1208V6.87924C55.4037 6.87924 56.8327 5.45027 56.8327 3.68962C56.8327 1.92897 55.4037 0.5 53.6431 0.5H3.88396C2.1233 0.5 0.694336 1.92897 0.694336 3.68962C0.694336 5.45027 2.1233 6.87924 3.88396 6.87924V68.1208C2.1233 68.1208 0.694336 69.5497 0.694336 71.3104ZM51.0912 68.1208H47.2636L46.0547 65.703C45.9112 65.4287 45.7134 65.1799 45.4774 64.9758C46.8776 64.1529 47.5793 62.5166 47.2126 60.9377L45.337 52.185C44.4885 48.1821 41.9304 44.7499 38.3325 42.7947C33.6246 40.2684 32.757 39.0436 32.6167 38.7629C32.757 38.4567 33.6501 37.0278 38.9704 33.6212C42.1697 31.5671 44.4024 28.304 45.1583 24.5754L47.2635 14.0108C47.4932 12.8881 47.2029 11.7207 46.4725 10.834C46.195 10.5054 45.8664 10.2279 45.4964 10.011C45.7229 9.8069 45.9143 9.56448 46.0546 9.29655L47.2635 6.87882H51.0911L51.0912 68.1208ZM11.935 12.48C12.1742 12.1642 12.5474 11.9792 12.943 11.9824H43.5131C43.8959 11.9792 44.2595 12.1546 44.4955 12.4545C44.7411 12.7479 44.84 13.137 44.7634 13.5134L43.309 20.7858C41.9279 20.5944 40.5308 20.5051 39.1369 20.5179C35.8356 20.5498 32.563 21.092 29.4272 22.1255L29.0572 22.2404C24.2823 23.5704 19.3035 24.0075 14.3723 23.529L11.7185 13.5899C11.6165 13.2071 11.6958 12.7958 11.935 12.48ZM28.7634 46.4306C30.17 46.4275 31.3119 45.2856 31.3151 43.8789V41.3272C31.3183 41.273 31.3119 41.2155 31.3023 41.1613C33.0598 42.7115 35.0151 44.0161 37.1203 45.04C40.0548 46.6443 42.144 49.448 42.8362 52.7206L43.1551 54.2262C38.5141 55.1544 33.7329 55.1193 29.1079 54.1241C28.419 53.9583 27.7427 53.7796 27.0666 53.601C23.979 52.5229 20.6649 52.2582 17.4467 52.8355C16.2028 53.1098 14.9971 53.5372 13.8616 54.1114L14.3974 52.2231C15.2778 49.2152 17.332 46.6891 20.1006 45.2186C22.3142 44.1532 24.3748 42.7944 26.2247 41.1741C26.2152 41.2252 26.2088 41.2762 26.212 41.3272V43.879C26.2152 45.2856 27.3567 46.4275 28.7634 46.4306ZM6.43552 6.87843H10.2631L11.472 9.29616C11.5422 9.42375 11.6251 9.54176 11.7208 9.65659C9.80062 10.2754 8.70978 12.2945 9.24242 14.2402L12.1641 25.1746C13.0764 28.5971 15.2485 31.5476 18.25 33.4292C23.8383 36.9633 24.7697 38.4433 24.91 38.7622C24.7696 39.0557 23.8638 40.3188 18.9006 42.9598C15.5228 44.7556 13.0125 47.8464 11.9472 51.5206L9.33167 60.6937C8.76391 62.6299 9.81969 64.6712 11.7335 65.3251C11.6346 65.4431 11.5453 65.5676 11.4719 65.7015L10.263 68.1192H6.43543L6.43552 6.87843Z" fill="white"/>
<path d="M30.9008 49.6211C30.9008 52.1728 26.7383 52.1728 26.7383 49.6211C26.7383 47.0693 30.9008 47.0693 30.9008 49.6211Z" fill="white"/>
</svg>
