<svg width="65" height="65" viewBox="0 0 65 65" fill="none" xmlns="http://www.w3.org/2000/svg">
<path d="M39.8596 23.92V17.05H36.0996C35.6678 15.1045 34.8777 13.2563 33.7696 11.6L36.4796 8.90998L31.6096 3.97998L28.9096 6.68998C27.2351 5.5903 25.3697 4.8136 23.4096 4.39998V0.599976H16.5496V4.39998C14.6069 4.8195 12.7589 5.59599 11.0996 6.68998L8.35961 3.97998L3.47961 8.85998L6.18961 11.6C5.08993 13.2744 4.31323 15.1399 3.89961 17.1H0.0996094V23.97H3.89961C4.31323 25.9301 5.08993 27.7955 6.18961 29.47L3.47961 32.11L8.34961 36.98L11.0996 34.27C12.756 35.3781 14.6041 36.1682 16.5496 36.6V40.4H23.4196V36.6C25.3797 36.1864 27.2451 35.4097 28.9196 34.31L31.6096 37.02L36.4796 32.15L33.7696 29.46C34.888 27.7764 35.6785 25.8968 36.0996 23.92H39.8596ZM19.9796 29.66C18.1224 29.66 16.307 29.1093 14.7628 28.0775C13.2186 27.0457 12.0151 25.5792 11.3044 23.8634C10.5937 22.1476 10.4077 20.2596 10.77 18.4381C11.1324 16.6166 12.0267 14.9435 13.3399 13.6302C14.6531 12.317 16.3262 11.4227 18.1477 11.0604C19.9692 10.6981 21.8572 10.884 23.573 11.5947C25.2888 12.3055 26.7553 13.509 27.7871 15.0532C28.8189 16.5973 29.3696 18.4128 29.3696 20.27C29.3696 22.7604 28.3803 25.1487 26.6193 26.9097C24.8584 28.6707 22.47 29.66 19.9796 29.66Z" fill="#FFC8D5"/>
<path d="M64.0996 51.36V45.84H61.0396C60.707 44.2649 60.083 42.7658 59.1996 41.42L61.3796 39.25L57.4596 35.33L55.2896 37.5C53.9438 36.6166 52.4447 35.9926 50.8696 35.66V32.6H45.3396V35.66C43.7645 35.9926 42.2654 36.6166 40.9196 37.5L38.7496 35.32L34.8296 39.24L37.0096 41.41C36.1263 42.7558 35.5022 44.2549 35.1696 45.83H32.0996V51.36H35.1596C35.4922 52.9351 36.1163 54.4341 36.9996 55.78L34.8196 57.95L38.7396 61.87L40.9096 59.69C42.2554 60.5733 43.7545 61.1974 45.3296 61.53V64.6H50.8596V61.54C52.4347 61.2074 53.9338 60.5833 55.2796 59.7L57.4496 61.88L61.3696 57.96L59.1996 55.79C60.083 54.4441 60.707 52.9451 61.0396 51.37L64.0996 51.36ZM48.0996 55.99C46.6044 55.99 45.1427 55.5466 43.8995 54.7159C42.6563 53.8852 41.6873 52.7045 41.1151 51.3231C40.5429 49.9417 40.3932 48.4216 40.6849 46.9551C40.9766 45.4886 41.6966 44.1415 42.7539 43.0842C43.8112 42.027 45.1582 41.3069 46.6247 41.0152C48.0912 40.7235 49.6113 40.8732 50.9927 41.4454C52.3741 42.0176 53.5548 42.9866 54.3855 44.2299C55.2162 45.4731 55.6596 46.9348 55.6596 48.43C55.6609 49.4231 55.4663 50.4068 55.0868 51.3246C54.7074 52.2424 54.1505 53.0764 53.4483 53.7786C52.746 54.4809 51.9121 55.0377 50.9943 55.4172C50.0764 55.7966 49.0928 55.9913 48.0996 55.99Z" fill="#FFC8D5"/>
</svg>
