<svg width="76" height="49" viewBox="0 0 76 49" fill="none" xmlns="http://www.w3.org/2000/svg">
<path d="M74.4986 22.7876C64.8573 8.78143 50.2186 0.599976 37.5995 0.599976C24.9803 0.599976 10.3418 8.78158 0.698914 22.7876C0.38793 23.2393 0.0996094 23.8409 0.0996094 24.4426C0.0996094 25.0448 0.38793 25.6452 0.698914 26.0975C10.342 40.1037 24.9803 48.2851 37.5995 48.2851C50.2186 48.2851 64.8571 40.1035 74.4986 26.0975C74.8113 25.6452 75.0996 25.0448 75.0996 24.4426C75.0996 23.8409 74.8113 23.2393 74.4986 22.7876ZM37.5995 41.6628C28.0896 41.6628 20.3791 33.9526 20.3791 24.4424C20.3791 14.9322 28.0893 7.22205 37.5995 7.22205C47.1097 7.22205 54.8198 14.9322 54.8198 24.4424C54.8198 33.9526 47.1097 41.6628 37.5995 41.6628Z" fill="#FFC8D5"/>
<path d="M44.1405 22.6046C41.5445 22.6046 39.4378 20.4986 39.4378 17.9019C39.4378 16.0784 40.4771 14.5008 41.9925 13.72C40.637 13.1631 39.1553 12.8516 37.5992 12.8516C31.1986 12.8516 26.0088 18.0413 26.0088 24.442C26.0088 30.842 31.1986 36.0324 37.5998 36.0324C44.0016 36.0324 49.1902 30.8432 49.1902 24.442C49.1902 22.8853 48.8786 21.4036 48.3218 20.048C47.5422 21.5646 45.9646 22.6046 44.1405 22.6046Z" fill="#FFC8D5"/>
</svg>
