<svg width="71" height="68" viewBox="0 0 71 68" fill="none" xmlns="http://www.w3.org/2000/svg">
<path d="M11.8542 16.8854H67.5276V12.3741C67.5276 10.634 66.0963 9.20266 64.3562 9.20266H49.9664C50.6127 10.5292 51.9732 11.4431 53.5477 11.4431C55.8374 11.4431 55.8374 14.9242 53.5477 14.9242C50.0264 14.9242 47.0743 12.4842 46.2902 9.20266H22.2528C22.8981 10.5292 24.2596 11.4431 25.8341 11.4431C28.1229 11.4431 28.1229 14.9242 25.8341 14.9242C22.3118 14.9242 19.3607 12.4842 18.5765 9.20266H15.0256C13.2846 9.20266 11.8542 10.634 11.8542 12.3741V16.8854ZM17.5955 29.844C15.304 29.844 15.304 26.3638 17.5955 26.3638H22.1543C24.4458 26.3638 24.4458 29.844 22.1543 29.844H17.5955ZM17.5955 50.1487C15.304 50.1487 15.304 46.6676 17.5955 46.6676H22.1543C24.4458 46.6676 24.4458 50.1487 22.1543 50.1487H17.5955ZM57.2275 50.1487C54.9361 50.1487 54.9361 46.6676 57.2275 46.6676H61.7864C64.0779 46.6676 64.0779 50.1487 61.7864 50.1487H57.2275ZM44.0166 50.1487C41.7251 50.1487 41.7251 46.6676 44.0166 46.6676H48.5754C50.8669 46.6676 50.8669 50.1487 48.5754 50.1487H44.0166ZM30.8065 50.1487C28.515 50.1487 28.515 46.6676 30.8065 46.6676H35.3644C37.6559 46.6676 37.6559 50.1487 35.3644 50.1487H30.8065ZM17.5955 43.3808C15.304 43.3808 15.304 39.8997 17.5955 39.8997H22.1543C24.4458 39.8997 24.4458 43.3808 22.1543 43.3808H17.5955ZM57.2275 43.3808C54.9361 43.3808 54.9361 39.8997 57.2275 39.8997H61.7864C64.0779 39.8997 64.0779 43.3808 61.7864 43.3808H57.2275ZM44.0166 43.3808C41.7251 43.3808 41.7251 39.8997 44.0166 39.8997H48.5754C50.8669 39.8997 50.8669 43.3808 48.5754 43.3808H44.0166ZM30.8065 43.3808C28.515 43.3808 28.515 39.8997 30.8065 39.8997H35.3644C37.6559 39.8997 37.6559 43.3808 35.3644 43.3808H30.8065ZM17.5955 36.6128C15.304 36.6128 15.304 33.1317 17.5955 33.1317H22.1543C24.4458 33.1317 24.4458 36.6128 22.1543 36.6128H17.5955ZM57.2275 36.6128C54.9361 36.6128 54.9361 33.1317 57.2275 33.1317H61.7864C64.0779 33.1317 64.0779 36.6128 61.7864 36.6128H57.2275ZM44.0166 36.6128C41.7251 36.6128 41.7251 33.1317 44.0166 33.1317H48.5754C50.8669 33.1317 50.8669 36.6128 48.5754 36.6128H44.0166ZM30.8065 36.6128C28.515 36.6128 28.515 33.1317 30.8065 33.1317H35.3644C37.6559 33.1317 37.6559 36.6128 35.3644 36.6128H30.8065ZM57.2275 29.844C54.9361 29.844 54.9361 26.3638 57.2275 26.3638H61.7864C64.0779 26.3638 64.0779 29.844 61.7864 29.844H57.2275ZM44.0166 29.844C41.7251 29.844 41.7251 26.3638 44.0166 26.3638H48.5754C50.8669 26.3638 50.8669 29.844 48.5754 29.844H44.0166ZM30.8065 29.844C28.515 29.844 28.515 26.3638 30.8065 26.3638H35.3644C37.6559 26.3638 37.6559 29.844 35.3644 29.844H30.8065ZM18.5765 5.72157C19.3607 2.44008 22.3118 0 25.8341 0C29.3555 0 32.3076 2.44008 33.0917 5.72157H46.2902C47.0743 2.44008 50.0264 0 53.5477 0C57.0691 0 60.0212 2.44008 60.8053 5.72157H64.3562C68.019 5.72157 71.0087 8.71125 71.0087 12.3741V61.3475C71.0087 65.0094 68.019 68 64.3562 68H6.64467C2.98187 68 -0.0078125 65.0094 -0.0078125 61.3475V57.8861C-0.0078125 56.9248 0.771832 56.1451 1.73318 56.1451H8.37314V12.3741C8.37314 8.71125 11.3628 5.72157 15.0256 5.72157H18.5765ZM29.4155 5.72157C28.7692 4.39501 27.4086 3.4811 25.8341 3.4811C24.2596 3.4811 22.8981 4.39501 22.2528 5.72157H29.4155ZM57.1291 5.72157C56.4828 4.39501 55.1222 3.4811 53.5477 3.4811C51.9732 3.4811 50.6127 4.39501 49.9664 5.72157H57.1291ZM11.8542 56.1451H59.4439C60.4052 56.1451 61.1848 56.9248 61.1848 57.8861V61.3475C61.1848 63.0876 62.6152 64.5189 64.3562 64.5189C66.0963 64.5189 67.5276 63.0876 67.5276 61.3475V20.3665H11.8542V56.1451ZM6.64467 64.5189H58.512C57.9973 63.5746 57.7038 62.4942 57.7038 61.3475V59.6262H3.47328V61.3475C3.47328 63.0876 4.90457 64.5189 6.64467 64.5189Z" fill="#093101"/>
</svg>
