<svg width="58" height="68" viewBox="0 0 58 68" fill="none" xmlns="http://www.w3.org/2000/svg">
<path fillRule="evenodd" clipRule="evenodd" d="M16.2351 15.8008H42.1016C43.7892 15.8008 45.1677 17.1674 45.1677 18.8404V34.7918C45.1677 36.4648 43.7892 37.8313 42.1016 37.8313H35.5244C34.3004 37.8313 33.2496 38.3829 32.5603 39.3818L29.2872 44.131C29.2594 44.1709 29.2192 44.1923 29.1697 44.1923C29.1234 44.1923 29.0801 44.1709 29.0523 44.131L25.7791 39.3818C25.0899 38.3799 24.036 37.8313 22.8151 37.8313H16.2348C14.5472 37.8313 13.1687 36.4648 13.1687 34.7918V18.8404C13.1687 17.1674 14.5475 15.8008 16.2351 15.8008ZM55.1634 25.7713C55.7476 25.7713 56.2174 26.2401 56.2174 26.8161C56.2174 27.3952 55.7445 27.8609 55.1634 27.8609H51.9644C51.3803 27.8609 50.9105 27.3921 50.9105 26.8161C50.9105 26.237 51.3834 25.7713 51.9644 25.7713H55.1634ZM3.17009 27.864C2.58593 27.864 2.11615 27.3952 2.11615 26.8192C2.11615 26.2401 2.58905 25.7744 3.17009 25.7744H6.36908C6.95324 25.7744 7.42301 26.2432 7.42301 26.8192C7.42301 27.3983 6.95012 27.864 6.36908 27.864H3.17009ZM10.0378 9.33272C9.62676 8.92521 9.62676 8.26336 10.0378 7.85281C10.4489 7.44529 11.1196 7.44529 11.5307 7.85281L13.7931 10.0957C14.2042 10.5032 14.2042 11.1681 13.7931 11.5756C13.3821 11.9831 12.7144 11.9831 12.3003 11.5756L10.0378 9.33272ZM28.113 1.04481C28.113 0.46571 28.5859 0 29.1669 0C29.7511 0 30.2208 0.468801 30.2208 1.04481V4.21612C30.2208 4.79522 29.748 5.26093 29.1669 5.26093C28.5828 5.26093 28.113 4.79213 28.113 4.21612V1.04481ZM46.8029 7.85312C47.214 7.4456 47.8816 7.4456 48.2957 7.85312C48.7068 8.26064 48.7068 8.92554 48.2957 9.33304L46.0333 11.5759C45.6222 11.9835 44.9515 11.9835 44.5404 11.5759C44.1294 11.1684 44.1294 10.5066 44.5404 10.096L46.8029 7.85312ZM2.27733 51.3407H4.47793C5.36191 51.3407 6.08827 52.0577 6.08827 52.9371V66.4036C6.08827 67.2799 5.36503 68 4.47793 68H2.27733C1.39335 68 0.666992 67.283 0.666992 66.4036V52.9371C0.666992 52.0608 1.39023 51.3407 2.27733 51.3407ZM36.1496 55.1769C36.7245 55.0635 37.2809 54.9134 37.8218 54.7357C41.8213 53.4089 48.2345 49.7964 53.6157 46.7905C54.7377 46.1624 56.1224 46.4198 56.9414 47.4064L57.065 47.5535C57.9459 48.6137 57.8501 50.164 56.8425 51.1077C52.6669 55.0297 46.8744 59.9196 42.127 62.9717C38.8724 65.0645 34.7029 67.5555 30.7655 67.8742C27.6438 68.1254 24.553 66.9948 21.4249 66.5474C17.1967 65.9438 12.7276 65.9469 8.33856 65.9959C8.29838 65.9959 8.26438 65.9837 8.23656 65.9561C8.20875 65.9285 8.19329 65.8948 8.19329 65.858L8.19638 52.9367V52.8938C8.19638 52.8264 8.23965 52.7712 8.30456 52.7559C9.59959 52.4557 10.8792 52.1554 12.1526 51.8122C15.8987 50.8011 18.5072 47.8259 22.6579 49.0668L32.0911 51.8858C33.6056 52.3393 34.4679 53.9142 34.0198 55.4462C33.7478 56.3716 32.6536 56.7975 31.6646 56.5922C29.3867 56.1172 26.4102 55.2685 24.2621 55.3298C23.851 55.342 23.4462 55.3757 23.0536 55.4339C22.4788 55.5167 22.0769 56.0437 22.1604 56.6136C22.2439 57.1835 22.7755 57.5818 23.3504 57.4991C24.0118 57.4041 24.6176 57.3826 25.2667 57.4439C26.877 57.5971 29.4083 58.2528 31.2381 58.6328C32.2766 58.8503 33.3305 58.7002 34.2022 58.2375C35.0429 57.7901 35.7104 57.0548 36.0319 56.0712V56.0682C36.1154 55.8292 36.1246 55.5902 36.0412 55.3604C36.0288 55.3205 36.0319 55.2807 36.0505 55.2439C36.0783 55.2102 36.1094 55.1861 36.1496 55.1769ZM29.2881 20.9177C29.2602 20.8748 29.2201 20.8533 29.1675 20.8533C29.1181 20.8533 29.0748 20.8778 29.047 20.9177L26.9267 24.2636C26.9081 24.2942 26.8803 24.3157 26.8432 24.3249L22.9272 25.3268C22.8778 25.339 22.8438 25.3727 22.8283 25.4187C22.8129 25.4647 22.8221 25.5137 22.8561 25.5505L25.3906 28.5257C25.4153 28.5532 25.4246 28.5869 25.4246 28.6237L25.1896 32.6836C25.1866 32.7326 25.2082 32.7755 25.2484 32.8061C25.2886 32.8337 25.338 32.8398 25.3844 32.8215L29.1149 31.2925C29.152 31.2772 29.186 31.2772 29.2231 31.2925L32.9537 32.8215C33 32.8398 33.0495 32.8337 33.0896 32.8061C33.1298 32.7786 33.1515 32.7326 33.1484 32.6836L32.9166 28.6237C32.9135 28.5869 32.9258 28.5532 32.9506 28.5257L35.485 25.5505C35.5159 25.5137 35.5252 25.4647 35.5128 25.4187C35.4974 25.3727 35.4634 25.339 35.4139 25.3268L31.4979 24.3249C31.4608 24.3157 31.433 24.2942 31.4144 24.2636L29.2881 20.9177Z" fill="#093101"/>
</svg>
