<svg width="76" height="68" viewBox="0 0 76 68" fill="none" xmlns="http://www.w3.org/2000/svg">
<path d="M40.4808 19.5006C45.8603 19.5006 50.2311 15.1298 50.2311 9.75031C50.2311 4.37083 45.8603 0 40.4808 0C35.1013 0 30.7305 4.37083 30.7305 9.75031C30.8145 15.2138 35.1854 19.5006 40.4808 19.5006ZM40.4808 2.60569C44.4313 2.60569 47.7095 5.79975 47.7095 9.83436C47.7095 13.869 44.5154 17.063 40.4808 17.063C36.4462 17.063 33.2521 13.869 33.2521 9.83436C33.2521 5.79975 36.5302 2.60569 40.4808 2.60569Z" fill="#093101"/>
<path d="M72.085 24.7961H53.9292H53.0887H44.1789V21.8542C44.1789 21.1818 43.5905 20.5934 42.9181 20.5934H1.8155C1.14307 20.5934 0.554688 21.1818 0.554688 21.8542V52.7862C0.554688 53.4586 1.14307 54.047 1.8155 54.047H3.58065L3.24443 61.78C3.24443 62.2844 3.49659 62.7046 3.91686 62.9568C4.08497 63.0408 4.25308 63.1249 4.42119 63.1249C4.67335 63.1249 5.00957 63.0408 5.26173 62.8727L16.441 54.047H25.2667C25.771 61.8641 32.3272 68.0001 40.2284 68.0001C46.3643 68.0001 51.7438 64.2176 54.0133 58.9222C56.2827 60.9395 59.2246 62.0322 62.3347 62.0322C69.3952 62.0322 75.1109 56.3165 75.1109 49.2559V27.738C75.0269 26.141 73.7661 24.7961 72.085 24.7961ZM12.6585 40.1781C11.0615 40.1781 9.80067 38.9172 9.80067 37.3202C9.80067 35.7232 11.0615 34.4624 12.6585 34.4624C14.2556 34.4624 15.5164 35.7232 15.5164 37.3202C15.5164 38.9172 14.2556 40.1781 12.6585 40.1781ZM21.064 40.1781C19.4669 40.1781 18.2061 38.9172 18.2061 37.3202C18.2061 35.7232 19.4669 34.4624 21.064 34.4624C22.661 34.4624 23.9218 35.7232 23.9218 37.3202C23.9218 38.9172 22.661 40.1781 21.064 40.1781ZM26.6115 37.2362C26.6115 35.6391 27.8724 34.3783 29.4694 34.3783C31.0664 34.3783 32.3272 35.6391 32.3272 37.2362C32.3272 38.8332 31.0664 40.094 29.4694 40.094C27.8724 40.1781 26.6115 38.8332 26.6115 37.2362ZM52.7525 52.9543C52.7525 59.8468 47.1208 65.4784 40.2284 65.4784C33.6721 65.4784 28.2926 60.4352 27.7883 54.047H42.9181C43.5905 54.047 44.1789 53.4586 44.1789 52.7862V27.3177H52.7525V52.9543ZM72.5052 49.2559C72.5052 54.8876 67.8823 59.5106 62.2506 59.5106C59.3928 59.5106 56.7871 58.4179 54.8538 56.3165C55.106 55.2238 55.19 54.1311 55.19 53.0384V27.3177H72.085C72.3371 27.3177 72.5052 27.4858 72.5052 27.738V49.2559Z" fill="#093101"/>
<path d="M62.839 19.5007C67.462 19.5007 71.1603 15.8023 71.1603 11.1793C71.1603 6.5563 67.462 2.85791 62.839 2.85791C58.216 2.85791 54.5176 6.5563 54.5176 11.1793C54.5176 15.8023 58.216 19.5007 62.839 19.5007ZM62.839 5.37954C66.033 5.37954 68.6387 7.98523 68.6387 11.1793C68.6387 14.3734 66.033 16.979 62.839 16.979C59.6449 16.979 57.0392 14.3734 57.0392 11.1793C57.0392 7.98523 59.6449 5.37954 62.839 5.37954Z" fill="#093101"/>
</svg>
