<svg width="85" height="68" viewBox="0 0 85 68" fill="none" xmlns="http://www.w3.org/2000/svg">
<path d="M44.0474 17.8109L50.7885 30.3002L54.9342 29.5498L61.0771 18.1701C61.5343 17.3203 62.6035 17.0017 63.4559 17.4574C63.7722 17.6253 64.0128 17.8789 64.1709 18.1701L70.3139 29.5498L83.0565 31.8558C84.0087 32.0271 84.6413 32.9352 84.4728 33.8843C84.411 34.2338 84.246 34.5387 84.0191 34.7785L75.0605 44.1188L76.8034 56.9238C76.9306 57.8798 76.2568 58.7639 75.2978 58.8906C74.9437 58.9386 74.5999 58.8769 74.3009 58.733L62.6231 53.1273L58.2883 55.2106L59.7596 66.014C59.8868 66.9699 59.213 67.854 58.254 67.9808C57.8999 68.0287 57.5561 67.9671 57.2571 67.8232L42.4992 60.7406L27.7448 67.8266C26.8717 68.2446 25.8198 67.8814 25.4004 67.0111C25.2388 66.6787 25.1941 66.3189 25.2491 65.9797L26.7136 55.2167L22.3753 53.1334L10.701 58.7391C9.82788 59.1571 8.77599 58.7939 8.35657 57.9236C8.19501 57.5912 8.15032 57.2314 8.20532 56.8922L9.94476 44.1284L0.982664 34.7881C0.315779 34.0891 0.343279 32.979 1.04454 32.3142C1.32299 32.0504 1.66674 31.8962 2.02426 31.8482L14.6921 29.5559L20.8351 18.1762C21.2923 17.3265 22.3614 17.0078 23.2138 17.4635C23.5301 17.6314 23.7707 17.885 23.9289 18.1762L30.0718 29.5559L34.2175 30.3063L40.9586 17.817C41.4158 16.9672 42.4849 16.6486 43.3374 17.1043C43.6536 17.2722 43.8942 17.5258 44.0524 17.817L44.0474 17.8109ZM44.2605 10.0602C44.2605 11.0299 43.4733 11.8146 42.5005 11.8146C41.5277 11.8146 40.7405 11.0299 40.7405 10.0602V1.75436C40.7405 0.784638 41.5277 0 42.5005 0C43.4733 0 44.2605 0.784664 44.2605 1.75436V10.0602ZM54.848 15.3233C54.2671 16.0942 53.167 16.2519 52.3936 15.6728C51.6201 15.0937 51.462 13.9972 52.0429 13.2262L57.1546 6.43152C57.7356 5.66056 58.8356 5.50294 59.6091 6.08201C60.3825 6.66109 60.5406 7.7576 59.9597 8.52856L54.848 15.3233ZM32.9541 13.2263C33.535 13.9973 33.3769 15.0937 32.6035 15.6728C31.83 16.252 30.73 16.0943 30.149 15.3233L25.0373 8.52861C24.4564 7.75765 24.6145 6.66118 25.388 6.08207C26.1614 5.50299 27.2614 5.66061 27.8424 6.43157L32.9541 13.2263ZM55.8865 32.9286L67.9145 35.1045C68.8667 35.2758 69.4993 36.1838 69.3308 37.133C69.2689 37.4825 69.1039 37.7874 68.8771 38.0272L57.5539 49.8315L57.7876 51.5619L61.8577 49.6053C62.3218 49.3826 62.8821 49.3655 63.384 49.6053L72.882 54.166L71.4657 43.7529C71.397 43.2458 71.5517 42.7113 71.9333 42.3139L79.2244 34.7139L68.9423 32.8533C68.3991 32.7848 67.8972 32.4627 67.6154 31.9452L62.6206 22.6901L57.6258 31.9452C57.3783 32.3975 56.9348 32.7402 56.3883 32.8361L55.883 32.9286L55.8865 32.9286ZM27.2067 51.5617L27.4404 49.8313L16.1173 38.0306C15.4504 37.3316 15.4779 36.2214 16.1791 35.5567C16.4576 35.2928 16.8013 35.1386 17.1589 35.0907L29.1113 32.9286L28.6919 32.8532C28.1487 32.7847 27.6469 32.4626 27.365 31.9452L22.3702 22.69L17.3754 31.9452C17.1279 32.3974 16.6844 32.7401 16.1379 32.836L5.76691 34.7103L13.058 42.3103C13.4121 42.6803 13.6012 43.2045 13.5255 43.7494L12.1092 54.1624L21.6073 49.6017C22.0713 49.379 22.6317 49.3619 23.1336 49.6017L27.2036 51.5583L27.2067 51.5617ZM49.1147 34.59L42.4974 22.3332L35.8836 34.59C35.6361 35.0423 35.1926 35.385 34.6461 35.4809L20.9134 37.965L30.5699 48.0289C30.9239 48.399 31.113 48.9232 31.0374 49.468L30.3705 54.3576L30.3636 54.3987L30.3567 54.4433L30.3499 54.4844L29.157 63.2562L41.7351 57.2187C42.1991 56.996 42.7595 56.9789 43.2614 57.2187L55.8395 63.2562L54.6466 54.4844L54.6397 54.4433L54.6328 54.3987L54.626 54.3576L53.9591 49.468C53.8903 48.9609 54.045 48.4264 54.4266 48.0289L64.083 37.965L50.4392 35.498C49.8961 35.4295 49.3942 35.1074 49.1124 34.5899L49.1147 34.59Z" fill="#093101"/>
</svg>
