<svg width="75" height="75" viewBox="0 0 75 75" fill="none" xmlns="http://www.w3.org/2000/svg">
<path d="M50.9044 25.2217C51.5848 27.6413 51.8148 30.165 51.5817 32.6666C51.3927 35.4864 50.5642 38.2306 49.1623 40.6849C47.9211 42.7297 46.0499 44.3176 43.8322 45.2092C42.0334 45.9118 40.1528 46.3844 38.2343 46.6113C38.9147 44.557 39.9386 42.632 41.2585 40.9181C42.1689 39.6831 43.1549 38.4984 44.1535 37.3705V37.3674C45.9964 35.3006 47.6848 33.0983 49.2032 30.7794C49.4804 30.3541 49.3607 29.7838 48.9355 29.5034C48.5102 29.2262 47.94 29.3459 47.6628 29.7712C46.1854 32.0208 44.5441 34.16 42.7517 36.167C41.7342 37.3517 40.7355 38.53 39.8157 39.7808C38.5651 41.397 37.5539 43.1866 36.8073 45.0864C36.3379 43.5584 36.0796 41.9704 36.0418 40.3699C36.0071 37.9313 36.6781 35.5368 37.9759 33.4732C39.7338 30.603 42.402 29.3837 45.6057 27.9249C47.4202 27.1215 49.1875 26.2204 50.9044 25.2217ZM28.9851 29.3364C26.887 28.8859 24.7261 28.8165 22.6059 29.1253C23.2737 30.7037 23.8503 32.32 24.3385 33.9647C25.2741 36.8916 26.0553 39.327 28.3707 41.1513C29.4323 42.0051 30.6452 42.6573 31.9431 43.07C32.7968 43.3346 33.6756 43.4985 34.564 43.5646C34.2963 42.1973 34.1986 40.8047 34.2742 39.4184C33.556 38.4291 32.7149 37.5312 31.7729 36.7467C30.831 35.9527 29.8292 35.2313 28.7739 34.5948C28.3297 34.3302 28.1817 33.7536 28.4463 33.3093C28.714 32.8619 29.2874 32.717 29.7347 32.9816C30.8688 33.6685 31.9462 34.4467 32.9605 35.3036C33.5276 35.8109 34.0663 36.3497 34.5734 36.9168C34.9137 35.4454 35.4807 34.0371 36.2493 32.739C34.1702 30.9841 31.6627 29.8122 28.9851 29.3364ZM67.8801 44.7651C67.4265 45.1967 67.2533 45.8425 67.4265 46.4412C68.1857 49.1885 68.9449 51.939 69.7072 54.6923H69.7104C69.8332 55.1365 69.7734 55.6091 69.5434 56.0061C69.3135 56.4031 68.9354 56.6929 68.4913 56.8063L60.1776 58.9834C59.5696 59.1315 59.0971 59.6041 58.9522 60.209L56.7974 68.5012C56.684 68.9454 56.3942 69.3235 55.9973 69.5535C55.6003 69.7835 55.1278 69.8434 54.6836 69.7205L46.37 67.4458C45.7714 67.2693 45.1225 67.4426 44.6941 67.8963L38.6867 73.9928H38.6835C38.3653 74.3173 37.9306 74.5 37.4738 74.5C37.0202 74.5 36.5855 74.3173 36.2642 73.9928L30.241 67.89C29.8094 67.4363 29.1636 67.263 28.5651 67.4363L20.3151 69.7205C19.8709 69.8434 19.3984 69.7835 19.0015 69.5535C18.6045 69.3235 18.3147 68.9454 18.2013 68.5012L16.0245 60.1864C15.8765 59.5783 15.404 59.1057 14.7991 58.9608L6.50804 56.8058C6.06386 56.6923 5.68586 56.4025 5.45586 56.0055C5.22586 55.6085 5.16604 55.1359 5.2889 54.6917L7.56333 46.3769C7.71454 45.7972 7.54128 45.1828 7.11286 44.7638L1.01723 38.724C0.677004 38.4089 0.49115 37.9647 0.500602 37.5047C0.488001 37.0447 0.673859 36.6005 1.00779 36.2855L7.11914 30.2457C7.57277 29.8141 7.74603 29.1682 7.57277 28.5696C6.81357 25.8159 6.05439 23.0655 5.29205 20.3185H5.2889C5.16605 19.8743 5.2259 19.4017 5.45586 19.0047C5.68582 18.6077 6.06385 18.3179 6.50803 18.2044L14.8217 16.0274C15.4297 15.8793 15.9022 15.4067 16.0471 14.8018L18.2019 6.50956C18.3153 6.06533 18.6051 5.68728 19.002 5.45725C19.399 5.22722 19.8715 5.16739 20.3157 5.29026L28.6293 7.565C29.209 7.71623 29.8233 7.54295 30.2422 7.11447L36.2496 1.01801C36.571 0.668295 37.0277 0.482407 37.5003 0.501313C37.9602 0.488711 38.4044 0.674594 38.7194 1.00857L44.7583 7.12075C45.1899 7.57444 45.8357 7.74772 46.4342 7.57444L54.6842 5.29341V5.29026C55.1284 5.16739 55.6009 5.22725 55.9978 5.45724C56.3948 5.68724 56.6846 6.06531 56.798 6.50956L58.9747 14.8244C59.1228 15.4324 59.5953 15.905 60.2001 16.0499L68.4912 18.205C68.9354 18.3184 69.3134 18.6083 69.5434 19.0052C69.7734 19.4022 69.8332 19.8748 69.7104 20.319L67.436 28.6339C67.2847 29.2136 67.458 29.828 67.8864 30.247L73.9821 36.2552C74.3317 36.5766 74.5176 37.0334 74.4987 37.506C74.5113 37.966 74.3254 38.4102 73.9915 38.7253L67.8801 44.7651ZM64.5977 37.506C64.5945 29.0815 60.6788 21.1353 53.9945 16.0064C47.3101 10.8775 38.6219 9.15064 30.4848 11.3309C22.3478 13.5142 15.6881 19.3555 12.4655 27.1378C9.24288 34.9229 9.82255 43.7634 14.0343 51.0603C18.2462 58.3572 25.6109 63.2781 33.9657 64.3782C42.3165 65.4778 50.706 62.6296 56.6632 56.6718C61.7508 51.593 64.6081 44.696 64.5985 37.5064L64.5977 37.506ZM55.3549 19.648C60.915 25.2025 63.5799 33.0256 62.5594 40.8202C61.5388 48.6117 56.9521 55.4899 50.1474 59.421C43.343 63.3562 35.099 63.9012 27.8345 60.8955C20.5733 57.8898 15.1233 51.6765 13.0886 44.0868C11.0505 36.4938 12.6633 28.3872 17.4453 22.1525C22.2273 15.9142 29.6396 12.2592 37.4993 12.2592C44.1966 12.2529 50.6203 14.9126 55.3549 19.648ZM52.2741 23.5516C52.1922 23.2838 51.9905 23.0695 51.7259 22.9719C51.4582 22.8742 51.162 22.9026 50.9195 23.0506C48.9726 24.2542 46.9408 25.3128 44.8396 26.2139C41.8405 27.5781 39.2764 28.7533 37.3075 31.1919C35.0078 29.3141 32.2735 28.0476 29.3532 27.512C26.6252 26.8976 23.7932 26.8976 21.0654 27.512C20.7818 27.5813 20.5519 27.7798 20.4353 28.0444C20.3282 28.2902 20.3282 28.5674 20.4353 28.81C21.2859 30.6342 21.9947 32.5246 22.5554 34.4559C23.5886 37.6822 24.4423 40.3602 27.183 42.5215H27.1862C28.4274 43.5234 29.8481 44.2859 31.3696 44.7647C32.5478 45.1333 33.767 45.3381 34.9987 45.3696C35.2475 46.3306 35.5752 47.2695 35.9847 48.1769C35.6634 50.3319 35.5153 52.509 35.5405 54.686C35.5405 55.1933 35.9532 55.606 36.4604 55.606C36.9676 55.606 37.3802 55.1933 37.3802 54.686C37.3582 52.6067 37.4968 50.5304 37.7992 48.4762C40.1177 48.2493 42.3922 47.7043 44.5658 46.8631C47.1395 45.817 49.31 43.9708 50.7496 41.5953C52.3027 38.8952 53.2131 35.8769 53.4179 32.7707C53.7203 29.6516 53.3294 26.504 52.2741 23.5516Z" fill="white"/>
</svg>
