<svg width="89" height="75" viewBox="0 0 89 75" fill="none" xmlns="http://www.w3.org/2000/svg">
<path d="M44.5 28.9297C33.0802 29.2929 33.0802 45.7517 44.5 46.1116C55.9199 45.7524 55.9199 29.2936 44.5 28.9297ZM44.5 42.9867C41.4868 42.9555 39.063 40.5188 39.063 37.5199C39.063 34.5248 41.4869 32.0882 44.5 32.053C47.5133 32.0882 49.9371 34.5248 49.9371 37.5199C49.9371 40.5188 47.5132 42.9554 44.5 42.9867Z" fill="white"/>
<path d="M88.5 37.5207C88.5 31.5111 80.5446 27.1414 69.6308 24.5763C70.3458 22.7957 70.9862 21.0464 71.4969 19.3711C74.1958 10.5149 73.6497 4.44247 69.9137 1.81841C64.2291 -2.18407 54.2196 3.65755 44.5154 13.2713C38.3868 6.84001 25.1283 -3.05486 19.1252 1.79141C15.3892 4.41158 14.8352 10.4797 17.5263 19.3402C18.037 21.0232 18.6813 22.7803 19.3963 24.5688C8.46726 27.1382 0.5 31.5116 0.5 37.5212C0.5 43.5307 8.45539 47.9005 19.3692 50.4656C15.3659 59.802 12.7299 74.2971 23.3724 74.5C29.1239 74.5 36.8942 69.291 44.4803 61.7705C51.0568 67.9558 61.9586 77.9098 69.8706 73.2504C75.178 70.111 73.0527 58.3418 69.5995 50.4696C80.5326 47.908 88.5 43.534 88.5 37.5207ZM65.6824 3.70473C71.1863 3.96636 70.7266 10.4992 68.4913 18.4695C67.9571 20.2149 67.2853 22.0424 66.5192 23.9167C61.8913 23.0303 57.2125 22.4446 52.5096 22.1596C50.6043 19.8049 48.6636 17.5792 46.7072 15.5174C54.4621 7.87175 61.4946 3.70473 65.6824 3.70473ZM54.7613 44.7411C53.4807 46.5413 52.1881 48.2282 50.8996 49.8604C48.8332 49.9658 46.6999 50.0166 44.4999 50.0205C42.2999 50.0205 40.1628 49.9658 38.0924 49.8604C36.7842 48.2048 35.4879 46.5022 34.2307 44.7294C28.4361 36.1544 28.4204 38.8799 34.2386 30.3046C35.5153 28.5083 36.8039 26.8175 38.0925 25.1892C40.1628 25.0837 42.3 25.033 44.5 25.0291C46.7 25.0291 48.8371 25.0837 50.9075 25.1892C52.2157 26.8448 53.5121 28.5474 54.7692 30.3201C60.5638 38.8913 60.5795 36.1659 54.7613 44.7411ZM61.3181 40.5707C62.7913 43.1636 64.0838 45.7134 65.2191 48.2008C61.872 48.8295 58.4934 49.2863 55.0956 49.5714C57.3035 46.6818 59.4128 43.6047 61.3181 40.5707ZM48.2519 53.0862C43.7536 58.2172 45.2033 58.1742 40.7365 53.0862C43.2429 53.1604 45.7415 53.1604 48.2519 53.0862ZM33.8964 49.5719C30.4982 49.2868 27.1118 48.8261 23.7568 48.1935C24.8961 45.7022 26.1965 43.1445 27.6775 40.5478C29.575 43.5819 31.7003 46.6901 33.8964 49.5719ZM27.6814 34.4762C26.2082 31.8833 24.9157 29.3335 23.7803 26.8461C27.1275 26.2174 30.5061 25.7606 33.8998 25.4755C31.6959 28.365 29.5867 31.4421 27.6814 34.4762ZM48.2673 21.9606C45.7531 21.8825 43.2505 21.8825 40.7363 21.9606C45.2424 16.853 43.8045 16.8686 48.2673 21.9606ZM57.3384 28.5169C56.6037 27.4821 55.8533 26.4707 55.103 25.475C58.5012 25.76 61.8876 26.2208 65.2426 26.8495C64.1033 29.3408 62.8029 31.8985 61.3219 34.4952C60.0687 32.4998 58.7487 30.5006 57.3384 28.5169ZM20.5313 18.4425C13.3656 -6.37267 32.8714 5.63504 42.3311 15.5177C40.3472 17.6108 38.3907 19.8365 36.5011 22.1599C31.8025 22.4449 27.1276 23.0306 22.5076 23.9092C21.7376 22.031 21.0655 20.1959 20.5313 18.4425ZM3.64235 37.5217C3.64235 33.8707 10.0577 29.9619 20.6369 27.5052C22.1809 30.9337 23.9172 34.2723 25.8305 37.5137C23.9094 40.7547 22.1652 44.1011 20.6173 47.5331C10.0492 45.077 3.64185 41.1721 3.64185 37.5207L3.64235 37.5217ZM20.9004 70.6739C17.1486 68.6551 19.769 56.9208 22.4836 51.1298C27.1075 52.0123 31.7864 52.602 36.4891 52.887C38.3945 55.2417 40.3352 57.4674 42.2916 59.5291C32.753 68.936 24.3067 73.068 20.9004 70.6739ZM68.4676 56.6049C73.0168 71.6655 67.3166 75.6641 54.5646 66.3592H54.5607C51.7675 64.2818 49.1275 62.0014 46.6721 59.5335C48.6521 57.4445 50.6006 55.207 52.4863 52.8875V52.8914C57.1888 52.6025 61.8677 52.0167 66.4919 51.1342C67.2619 53.0164 67.9334 54.8516 68.4676 56.6049ZM68.3615 47.5417C61.9619 33.6677 61.9973 41.372 68.3851 27.5138C90.896 32.8869 90.8678 42.1726 68.3615 47.5377V47.5417Z" fill="white"/>
</svg>
