<svg width="88" height="75" viewBox="0 0 88 75" fill="none" xmlns="http://www.w3.org/2000/svg">
<path d="M87.4971 44.5538L81.4058 21.9613L65.5913 6.24844L43.9985 0.5L22.4058 6.24844L6.59133 21.9613L0.5 44.5538H4.65907L8.95284 28.628L10.1281 24.2643C10.1718 24.1016 10.2555 23.9606 10.3683 23.8485L24.3048 10.0015C24.4358 9.87134 24.5996 9.78818 24.767 9.75202L43.7579 4.69774C43.9217 4.65436 44.0854 4.65436 44.2382 4.69774L63.2767 9.76656C63.4405 9.80994 63.5824 9.8931 63.6952 10.0052L77.6317 23.8485C77.7627 23.9786 77.8464 24.1413 77.8828 24.3076L79.0327 28.581L79.0654 28.7003L83.3409 44.5539H87.5L87.4971 44.5538ZM64.9589 70.7475L43.9958 65.357L23.0328 70.7475V74.4967H64.9589V70.7475ZM40.2921 64.4024L23.0375 59.9663V68.8421L40.2921 64.406V64.4024ZM23.0375 58.061L44.0005 63.4515L64.9635 58.061V47.4062C64.9635 45.989 64.3777 44.6982 63.4134 43.7366C62.4564 42.8075 61.1792 42.247 59.7709 42.247H44.9355V44.3874C45.6268 44.5609 46.2491 44.9188 46.7367 45.4069C47.4426 46.1119 47.8793 47.0773 47.8793 48.1293V52.3593C47.8793 52.8691 47.4608 53.2849 46.9478 53.2849H41.053C40.5399 53.2849 40.1214 52.8691 40.1214 52.3593V48.1293C40.1214 47.0736 40.5581 46.1119 41.2604 45.4105C41.7553 44.9188 42.3775 44.5609 43.0689 44.3874V42.247H28.2334C26.8071 42.247 25.5043 42.8291 24.5656 43.7583C23.6231 44.6983 23.0409 45.989 23.0409 47.4026V58.0574L23.0375 58.061ZM47.7042 64.4061L64.9589 68.8422V59.9664L47.7042 64.4025V64.4061ZM44.0364 46.1303C43.4214 46.1412 42.9302 46.3653 42.5772 46.716C42.2097 47.0812 41.9841 47.5801 41.9841 48.1332V51.4413H46.0122V48.1332C46.0122 47.5801 45.7866 47.0812 45.4227 46.7196C45.0661 46.3653 44.5749 46.1376 44.0327 46.1303L44.0364 46.1303ZM21.174 74.4963V47.4057C21.174 45.4751 21.9672 43.7252 23.2445 42.4562C24.5289 41.1872 26.2901 40.399 28.226 40.399H59.7665C61.6768 40.399 63.4162 41.1655 64.7224 42.4273C66.0287 43.7251 66.8256 45.4751 66.8256 47.4056V74.4962H77.2214V28.9966L76.1407 24.9872L62.5498 11.4873L43.9994 6.54868L25.449 11.4873L11.8581 24.9872L10.7773 28.993V74.5H21.1731L21.174 74.4963ZM38.8152 17.5608H43.0653V13.3344C42.0064 13.5224 41.0567 14.0213 40.2997 14.7625C39.532 15.5253 39.0081 16.487 38.8152 17.5608ZM44.9283 17.5608H49.1784C48.9855 16.4869 48.4615 15.5253 47.7192 14.7841C46.9769 14.0466 46.0127 13.5296 44.9283 13.3344V17.5608ZM49.1784 19.4118H44.9283V23.631C46.0091 23.4394 46.9769 22.9188 47.7192 22.1849C48.4652 21.4437 48.9855 20.482 49.1784 19.4082V19.4118ZM43.0653 19.4118H38.8152C39.008 20.4857 39.532 21.4473 40.2707 22.1812C41.0166 22.9224 41.9845 23.4394 43.0653 23.631V19.4118ZM43.9968 11.4002C45.9908 11.4146 47.7557 12.2064 49.0365 13.4754C50.3174 14.7408 51.1143 16.4979 51.1252 18.5189C51.1106 20.464 50.3174 22.2138 49.0365 23.4864C47.7484 24.7627 45.9873 25.5509 43.9604 25.5653C42.0028 25.5508 40.2416 24.7627 38.9608 23.4901C37.6763 22.2138 36.883 20.4604 36.8721 18.4466C36.8867 16.4979 37.6835 14.7408 38.9862 13.4465C40.2925 12.1812 42.0318 11.4146 43.9968 11.4002Z" fill="white"/>
</svg>
